<svg width="16" height="9" viewBox="0 0 16 9" fill="none" xmlns="http://www.w3.org/2000/svg">
<path d="M6.92298 8.51868L0.241099 2.10155C0.0803663 1.94719 2.09851e-08 1.75975 1.83554e-08 1.53923C1.57257e-08 1.31871 0.0803663 1.13127 0.241099 0.976902L0.998838 0.249187C1.15957 0.0948235 1.35475 0.0121286 1.58436 0.00110258C1.81398 -0.00992341 2.00916 0.0617455 2.16989 0.216109L7.50851 5.34319L12.8471 0.216109C13.0079 0.0617454 13.203 -0.00992355 13.4326 0.00110244C13.6623 0.0121284 13.8574 0.0948233 14.0182 0.249187L14.7759 0.976902C14.9366 1.13127 15.017 1.31871 15.017 1.53923C15.017 1.75975 14.9366 1.94719 14.7759 2.10155L8.09403 8.51868C7.9333 8.69509 7.73812 8.7833 7.50851 8.7833C7.27889 8.7833 7.08371 8.69509 6.92298 8.51868Z" fill="#F47C21"/>
</svg>
